<?xml version="1.0" encoding="utf-8"?>
<!-- Generator: Adobe Illustrator 26.0.0, SVG Export Plug-In . SVG Version: 6.00 Build 0)  -->
<svg version="1.1" id="Layer_1" xmlns="http://www.w3.org/2000/svg" xmlns:xlink="http://www.w3.org/1999/xlink" x="0px" y="0px"
 viewBox="0 0 23.88 23.08" style="enable-background:new 0 0 23.88 23.08;" xml:space="preserve">
<style type="text/css">
.st1{fill:#A6FF34;}
</style>
<g>
<g>
<g>
<path class="st1" d="M13.54,9.49H9.43c-0.2,0-0.36-0.16-0.36-0.36V5.66c0-0.2-0.16-0.36-0.36-0.36h-2c-0.2,0-0.36,0.16-0.36,0.36
V16.6c0,0.2,0.16,0.36,0.36,0.36h2c0.2,0,0.36-0.16,0.36-0.36v-4.02c0-0.2,0.16-0.36,0.36-0.36h4.11c0.2,0,0.36-0.16,0.36-0.36
V9.85C13.89,9.65,13.73,9.49,13.54,9.49z"/>
</g>
<g>
<path class="st1" d="M15,5.78v7.97c0,0.26-0.21,0.48-0.47,0.48h-3.87c-0.26,0-0.47,0.21-0.47,0.48v1.77
c0,0.26,0.21,0.48,0.47,0.48H15h1.35h0.88c0.26,0,0.47-0.21,0.47-0.48V5.78c0-0.26-0.21-0.48-0.47-0.48h-1.76
C15.21,5.3,15,5.51,15,5.78z"/>
</g>
<g>
<path class="st1" d="M17.55,20.45H6.23c-1.84,0-3.33-1.51-3.33-3.36V5.68c0-1.85,1.5-3.36,3.33-3.36h11.32
c1.84,0,3.33,1.51,3.33,3.36v11.41C20.88,18.94,19.39,20.45,17.55,20.45z M6.23,3.75c-1.06,0-1.92,0.87-1.92,1.93v11.41
c0,1.07,0.86,1.93,1.92,1.93h11.32c1.06,0,1.92-0.87,1.92-1.93V5.68c0-1.07-0.86-1.93-1.92-1.93H6.23z"/>
</g>
</g>
</g>
</svg>
